<?xml version="1.0" encoding="utf-8"?>
<!-- Generator: Adobe Illustrator 22.0.1, SVG Export Plug-In . SVG Version: 6.00 Build 0)  -->
<svg version="1.1" id="Layer_1" xmlns="http://www.w3.org/2000/svg" xmlns:xlink="http://www.w3.org/1999/xlink" x="0px" y="0px"
	 viewBox="0 0 295.6 234.4" style="enable-background:new 0 0 295.6 234.4;" xml:space="preserve">
<style type="text/css">
	.st0{fill:url(#SVGID_1_);}
	.st1{opacity:0.47;fill:url(#SVGID_2_);enable-background:new    ;}
	.st2{fill:url(#SVGID_3_);}
	.st3{fill:url(#SVGID_4_);}
	.st4{fill:url(#SVGID_5_);}
	.st5{fill:url(#SVGID_6_);stroke:url(#SVGID_7_);stroke-miterlimit:10;}
	.st6{fill:url(#SVGID_8_);}
	.st7{fill:url(#SVGID_9_);}
	.st8{fill:url(#SVGID_10_);}
	.st9{fill:url(#SVGID_11_);}
</style>
<radialGradient id="SVGID_1_" cx="99.6709" cy="-1900.8083" r="145.3578" gradientTransform="matrix(1.0678 0 0 8.616023e-02 42.2714 387.6281)" gradientUnits="userSpaceOnUse">
	<stop  offset="0.1801" style="stop-color:#000000"/>
	<stop  offset="0.3548" style="stop-color:#303030;stop-opacity:0.7869"/>
	<stop  offset="0.7495" style="stop-color:#A7A7A7;stop-opacity:0.3055"/>
	<stop  offset="1" style="stop-color:#F6F6F6;stop-opacity:0"/>
</radialGradient>
<ellipse class="st0" cx="148.7" cy="223.9" rx="155.3" ry="12.5"/>
<radialGradient id="SVGID_2_" cx="99.479" cy="-1900.8083" r="115.6392" gradientTransform="matrix(1.0147 0 0 8.616023e-02 45.1587 387.6281)" gradientUnits="userSpaceOnUse">
	<stop  offset="0.1801" style="stop-color:#000000"/>
	<stop  offset="0.3548" style="stop-color:#303030;stop-opacity:0.7869"/>
	<stop  offset="0.7495" style="stop-color:#A7A7A7;stop-opacity:0.3055"/>
	<stop  offset="1" style="stop-color:#F6F6F6;stop-opacity:0"/>
</radialGradient>
<ellipse class="st1" cx="146.1" cy="223.9" rx="117.4" ry="10"/>
<linearGradient id="SVGID_3_" gradientUnits="userSpaceOnUse" x1="58.9782" y1="153.3197" x2="181.3556" y2="153.3197" gradientTransform="matrix(1 0 0 -1 0 260)">
	<stop  offset="0" style="stop-color:#475B2A"/>
	<stop  offset="1" style="stop-color:#D4DE31"/>
</linearGradient>
<path class="st2" d="M181.5,96.2c-1.5-1.9-2.9-3.9-4.4-5.8c-2.4-3.1-5.2-5.8-8.2-8.1c-6.8-5.1-15-8-23.9-8c-9.1,0-17.5,3.1-24.3,8.4
	c-18.2,1-56.5,12.6-59.3,91.3c-0.5-0.8-0.9-1.6-1.3-2.4C57,135.5,55,21.7,158.2,41.7c0.1,0.1,0.1,0.2,0.2,0.3
	c0.6,0.8,1.1,1.5,1.7,2.3c0.5,0.7,1,1.5,1.6,2.2c0,0,0.1,0.1,0.1,0.2c0.3,0.5,0.6,0.9,0.9,1.4c0.2,0.3,0.3,0.5,0.5,0.8
	c1.6,2.6,3.1,5.2,4.5,7.7c0.3,0.5,0.5,1,0.8,1.5c0.8,1.6,1.6,3.1,2.3,4.7c0.1,0.3,0.2,0.5,0.4,0.8c0.2,0.5,0.4,0.9,0.6,1.4
	c0.1,0.3,0.2,0.6,0.4,0.9c0.1,0.3,0.2,0.5,0.3,0.8s0.2,0.6,0.4,0.9c0.1,0.2,0.2,0.4,0.2,0.6c0.2,0.5,0.4,1,0.6,1.5
	c0.1,0.3,0.2,0.5,0.3,0.7c0.2,0.5,0.4,1,0.6,1.5c0.1,0.2,0.2,0.5,0.3,0.7c0.3,0.7,0.5,1.5,0.8,2.1c0.1,0.2,0.2,0.5,0.2,0.7
	c0.8,2.3,1.5,4.6,2.2,6.7c0.1,0.2,0.1,0.4,0.2,0.6c0.5,1.7,0.9,3.2,1.3,4.7c0,0.2,0.1,0.3,0.1,0.5c0.2,1,0.5,1.9,0.7,2.7
	c0.1,0.3,0.1,0.6,0.2,0.8C180.9,93.2,181.2,94.9,181.5,96.2z"/>
<linearGradient id="SVGID_4_" gradientUnits="userSpaceOnUse" x1="60.8166" y1="199.9617" x2="115.9998" y2="147.418" gradientTransform="matrix(1 0 0 -1 0 260)">
	<stop  offset="0" style="stop-color:#D4DE31"/>
	<stop  offset="1" style="stop-color:#000000"/>
</linearGradient>
<path class="st3" d="M158,41.6C54.8,21.5,56.8,135.4,59.9,171.5c-8.4-15.5-13.2-33.4-13.2-52.6c0-50.4,33.2-92.5,77.5-102.6
	c0.6,0.2,1.2,0.5,1.9,0.7c0.4,0.2,0.7,0.3,1.1,0.4c0.3,0.1,0.6,0.3,1,0.4c0.6,0.3,1.1,0.5,1.7,0.8c0.4,0.2,0.8,0.4,1.2,0.6
	c0.3,0.1,0.5,0.3,0.8,0.4c0.3,0.2,0.6,0.3,0.9,0.5c0.3,0.2,0.6,0.3,0.9,0.5c0.3,0.2,0.6,0.3,0.9,0.5c0.3,0.2,0.6,0.3,0.9,0.5
	s0.6,0.3,0.9,0.5c0.3,0.2,0.6,0.3,0.9,0.5c0.9,0.5,1.7,1.1,2.5,1.6c0.3,0.2,0.5,0.4,0.8,0.6s0.6,0.4,0.9,0.6
	c0.2,0.2,0.5,0.4,0.7,0.5c0.2,0.2,0.5,0.4,0.8,0.6c0.2,0.2,0.5,0.4,0.7,0.6l0,0c0.5,0.4,1,0.8,1.5,1.2l0,0c0.2,0.2,0.4,0.3,0.6,0.5
	c0.5,0.5,1.1,0.9,1.6,1.4c0.5,0.4,0.9,0.8,1.4,1.3c1.2,1.1,2.3,2.3,3.4,3.4c0.2,0.2,0.4,0.4,0.6,0.6c0.2,0.2,0.4,0.5,0.6,0.7
	c0.2,0.2,0.4,0.5,0.6,0.7c0.2,0.2,0.4,0.5,0.6,0.7c0.2,0.2,0.3,0.4,0.5,0.6c0.2,0.3,0.5,0.6,0.7,0.8c0.2,0.2,0.4,0.5,0.6,0.7
	c0.4,0.5,0.8,1,1.2,1.5C157.8,41.3,157.9,41.5,158,41.6z"/>
<linearGradient id="SVGID_5_" gradientUnits="userSpaceOnUse" x1="96.118" y1="138.4169" x2="235.4234" y2="34.5443" gradientTransform="matrix(1 0 0 -1 0 260)">
	<stop  offset="0" style="stop-color:#46193E"/>
	<stop  offset="0.6878" style="stop-color:#FBD427"/>
</linearGradient>
<path class="st4" d="M222.5,183.1c-0.2,0.3-0.4,0.6-0.5,0.8c-1.2,1.6-2.5,3.2-3.7,4.8C94.1,245.2,69.7,125,69.7,125
	c13-35.1,37.4-41.6,50.8-42.4c-10.6,8.1-17.5,21.3-17.5,36.3c0,9.2,2.6,17.7,7.1,24.8l0,0C129.1,203.6,200.1,189.3,222.5,183.1z"/>
<linearGradient id="SVGID_6_" gradientUnits="userSpaceOnUse" x1="74.8211" y1="145.3507" x2="177.2347" y2="37.0388" gradientTransform="matrix(1 0 0 -1 0 260)">
	<stop  offset="0.2049" style="stop-color:#46193E"/>
	<stop  offset="0.2936" style="stop-color:#4C1F3D"/>
	<stop  offset="0.4158" style="stop-color:#5D313B"/>
	<stop  offset="0.5574" style="stop-color:#794E37"/>
	<stop  offset="0.7135" style="stop-color:#A17732"/>
	<stop  offset="0.8795" style="stop-color:#D2AA2C"/>
	<stop  offset="1" style="stop-color:#FBD427"/>
</linearGradient>
<linearGradient id="SVGID_7_" gradientUnits="userSpaceOnUse" x1="60.7954" y1="86.3854" x2="219.8984" y2="86.3854" gradientTransform="matrix(1 0 0 -1 0 260)">
	<stop  offset="0" style="stop-color:#46193E"/>
	<stop  offset="1" style="stop-color:#FBD427"/>
</linearGradient>
<path class="st5" d="M218.2,188.7c-0.8,1-1.6,1.9-2.4,2.8c-4.2,4.7-8.7,8.9-13.6,12.6c-16.1,12.4-35.9,19.7-57.2,19.7
	c-35.3,0-66.3-20-83.7-50c0.7-20.6,3.9-36.5,8.5-48.9C69.7,125,94.1,245.2,218.2,188.7z"/>
<linearGradient id="SVGID_8_" gradientUnits="userSpaceOnUse" x1="124.2" y1="206" x2="230.6194" y2="206" gradientTransform="matrix(1 0 0 -1 0 260)">
	<stop  offset="0" style="stop-color:#00798F"/>
	<stop  offset="1" style="stop-color:#46193E"/>
</linearGradient>
<path class="st6" d="M229.8,81c-1.2,4.9-3.5,9.3-6.4,13c-8.8-20.1-36.6-70.3-97.3-77c-0.6-0.2-1.2-0.5-1.9-0.7
	c6.6-1.5,13.6-2.3,20.6-2.3c24.8,0,47.6,9.9,64.9,26.2C220.6,50.3,234.1,64.1,229.8,81z"/>
<g>
	
		<linearGradient id="SVGID_9_" gradientUnits="userSpaceOnUse" x1="127.1939" y1="244.2438" x2="201.4797" y2="173.5113" gradientTransform="matrix(1 0 0 -1 0 260)">
		<stop  offset="0" style="stop-color:#46193E"/>
		<stop  offset="1" style="stop-color:#00798F"/>
	</linearGradient>
	<path class="st7" d="M223.4,94c-5.9,7.4-14.8,12.1-24.2,12.1c-2.5,0-4.9,0.1-7.1-1.1c-2.5-1.3-4.9-3-7.1-5
		c-1.3-1.1-2.4-2.5-3.5-3.9c-0.2-1.3-0.6-2.9-1-5c-0.1-0.3-0.1-0.6-0.2-0.8c-0.2-0.9-0.4-1.8-0.7-2.7c0-0.2-0.1-0.3-0.1-0.5
		c-0.4-1.5-0.8-3.1-1.3-4.7c-0.1-0.2-0.1-0.4-0.2-0.6c-0.6-2.1-1.4-4.4-2.2-6.7c-0.1-0.2-0.2-0.5-0.2-0.7c-0.2-0.7-0.5-1.4-0.8-2.1
		c-0.1-0.2-0.2-0.5-0.3-0.7c-0.2-0.5-0.4-1-0.6-1.5c-0.1-0.2-0.2-0.5-0.3-0.7c-0.2-0.5-0.4-1-0.6-1.5c-0.1-0.2-0.2-0.4-0.2-0.6
		c-0.1-0.3-0.2-0.6-0.4-0.9c-0.1-0.3-0.2-0.5-0.3-0.8s-0.2-0.6-0.4-0.9c-0.2-0.5-0.4-0.9-0.6-1.4c-0.1-0.3-0.2-0.5-0.4-0.8
		c-0.7-1.6-1.5-3.1-2.3-4.7c-0.2-0.5-0.5-1-0.8-1.5c-1.4-2.6-2.9-5.2-4.5-7.7c-0.2-0.3-0.3-0.5-0.5-0.8c-0.3-0.5-0.6-1-0.9-1.4
		c0-0.1-0.1-0.1-0.1-0.2c-0.5-0.8-1-1.5-1.6-2.2c-0.5-0.8-1.1-1.5-1.7-2.3c-0.2-0.2-0.4-0.5-0.6-0.7c-0.4-0.5-0.8-1-1.2-1.5
		c-0.2-0.2-0.4-0.5-0.6-0.7c-0.2-0.3-0.5-0.6-0.7-0.8c-0.2-0.2-0.3-0.4-0.5-0.6s-0.4-0.5-0.6-0.7c-0.2-0.2-0.4-0.5-0.6-0.7
		c-0.2-0.2-0.4-0.5-0.6-0.7c-0.2-0.2-0.4-0.4-0.6-0.6c-1.1-1.2-2.2-2.3-3.4-3.4c-0.5-0.4-0.9-0.8-1.4-1.3s-1.1-1-1.6-1.4
		c-0.2-0.2-0.4-0.3-0.6-0.5l0,0c-0.5-0.4-1-0.8-1.5-1.2l0,0c-0.2-0.2-0.5-0.4-0.7-0.6s-0.5-0.4-0.8-0.6c-0.2-0.2-0.5-0.4-0.7-0.5
		c-0.3-0.2-0.6-0.4-0.9-0.6c-0.3-0.2-0.5-0.4-0.8-0.6c-0.8-0.6-1.6-1.1-2.5-1.6c-0.3-0.2-0.6-0.3-0.9-0.5c-0.3-0.2-0.6-0.3-0.9-0.5
		c-0.3-0.2-0.6-0.3-0.9-0.5c-0.3-0.2-0.6-0.3-0.9-0.5c-0.3-0.2-0.6-0.3-0.9-0.5c-0.3-0.2-0.6-0.3-0.9-0.5c-0.3-0.2-0.5-0.3-0.8-0.4
		c-0.4-0.2-0.8-0.4-1.2-0.6c-0.6-0.3-1.1-0.5-1.7-0.8c-0.3-0.2-0.6-0.3-1-0.4c-0.4-0.2-0.7-0.3-1.1-0.4
		C186.8,23.7,214.6,73.9,223.4,94z"/>
</g>
<linearGradient id="SVGID_10_" gradientUnits="userSpaceOnUse" x1="152.1068" y1="127.5308" x2="195.8945" y2="81.2214" gradientTransform="matrix(1 0 0 -1 0 260)">
	<stop  offset="0.4" style="stop-color:#E8512F"/>
	<stop  offset="1" style="stop-color:#46193E"/>
</linearGradient>
<path class="st8" d="M222.1,154c-19.2,12.6-66.3,37.6-97.1,4.1c5.9,3.4,12.7,5.4,20,5.4c7.5,0,14.5-2.1,20.5-5.8
	c8.1-4.9,12.5-13.8,20.5-18.7c2.5-1.6,5.7-1.9,8.8-1.9c9.1,0,17.8,4.2,23.8,11.5C219.7,150.2,221,152,222.1,154z"/>
<linearGradient id="SVGID_11_" gradientUnits="userSpaceOnUse" x1="134.7259" y1="139.2958" x2="207.4043" y2="62.4318" gradientTransform="matrix(1 0 0 -1 0 260)">
	<stop  offset="0.3902" style="stop-color:#2B1C20"/>
	<stop  offset="1" style="stop-color:#0080AD"/>
</linearGradient>
<path class="st9" d="M226.5,171.2c-0.1,1.5-0.4,2.9-0.8,4.3c-0.8,2.6-1.6,5.4-3.1,7.7c-22.4,6.1-93.5,20.4-112.3-39.4
	c3.7,6,8.8,10.9,14.7,14.4l0,0c30.8,33.4,77.9,8.5,97.1-4.1C225,159.1,226.8,165.4,226.5,171.2z"/>
</svg>
