<?xml version="1.0" encoding="utf-8"?>
<!-- Generator: Adobe Illustrator 22.0.1, SVG Export Plug-In . SVG Version: 6.00 Build 0)  -->
<svg version="1.1" id="Layer_1" xmlns="http://www.w3.org/2000/svg" xmlns:xlink="http://www.w3.org/1999/xlink" x="0px" y="0px"
	 viewBox="0 0 1280 1024" style="enable-background:new 0 0 1280 1024;" xml:space="preserve">
<style type="text/css">
	.st0{fill:url(#SVGID_1_);}
	.st1{fill:url(#SVGID_2_);}
	.st2{fill:url(#SVGID_3_);}
	.st3{fill:url(#SVGID_4_);stroke:url(#SVGID_5_);stroke-miterlimit:10;}
	.st4{fill:url(#SVGID_6_);}
	.st5{fill:url(#SVGID_7_);}
	.st6{fill:url(#SVGID_8_);}
	.st7{fill:url(#SVGID_9_);}
	.st8{fill:none;stroke:#000000;stroke-miterlimit:10;}
</style>
<linearGradient id="SVGID_1_" gradientUnits="userSpaceOnUse" x1="450.9824" y1="446.965" x2="725.44" y2="446.965">
	<stop  offset="0" style="stop-color:#475B2A"/>
	<stop  offset="1" style="stop-color:#D4DE31"/>
</linearGradient>
<path class="st0" d="M725.4,423.6c-3.4-4.2-6.6-8.6-9.9-13c-5.4-6.9-11.6-13-18.5-18.2c-15.2-11.4-33.6-18-53.5-18
	c-20.3,0-39.1,6.9-54.5,18.7c-40.8,2.2-126.6,28.1-132.9,204.6c-1-1.8-2-3.6-3-5.4c-7-80.9-11.4-335.9,219.8-291
	c0.2,0.2,0.3,0.4,0.5,0.6c1.3,1.7,2.6,3.3,3.8,5c1.2,1.6,2.3,3.3,3.5,5c0.1,0.1,0.2,0.3,0.2,0.3c0.7,1,1.4,2.1,2.1,3.2
	c0.4,0.6,0.7,1.1,1.1,1.7c3.7,5.7,7,11.5,10.2,17.3c0.6,1.1,1.2,2.2,1.8,3.3c1.8,3.5,3.5,7,5.1,10.4c0.2,0.6,0.6,1.1,0.8,1.7
	c0.5,1,1,2.1,1.4,3.1c0.3,0.7,0.6,1.4,0.9,2.1c0.2,0.6,0.5,1.1,0.7,1.7c0.3,0.7,0.6,1.4,0.9,2.1c0.2,0.4,0.4,0.9,0.6,1.4
	c0.5,1.1,1,2.2,1.4,3.3c0.2,0.6,0.4,1.1,0.6,1.6c0.4,1.1,0.9,2.2,1.3,3.2c0.2,0.5,0.4,1.1,0.6,1.6c0.6,1.6,1.2,3.2,1.8,4.8
	c0.2,0.5,0.4,1,0.6,1.5c1.8,5.2,3.4,10.3,4.9,15c0.2,0.4,0.3,0.9,0.4,1.4c1.1,3.8,2.1,7.3,3,10.5c0.1,0.3,0.2,0.7,0.3,1.1
	c0.6,2.1,1,4.2,1.5,6.2c0.2,0.7,0.3,1.3,0.4,1.9C724.2,417,724.8,420.8,725.4,423.6z"/>
<linearGradient id="SVGID_2_" gradientUnits="userSpaceOnUse" x1="455.237" y1="342.5818" x2="578.883" y2="460.3136">
	<stop  offset="0" style="stop-color:#D4DE31"/>
	<stop  offset="1" style="stop-color:#000000"/>
</linearGradient>
<path class="st1" d="M673,301.4c-231.2-45-226.8,210.1-219.8,291c-18.8-34.6-29.6-74.9-29.6-117.9c0-112.9,74.5-207.3,173.8-229.9
	c1.4,0.5,2.8,1,4.2,1.5c0.8,0.3,1.6,0.7,2.4,0.9c0.7,0.3,1.4,0.6,2.2,0.9c1.3,0.6,2.6,1.1,3.8,1.7c0.9,0.4,1.8,0.9,2.6,1.3
	c0.6,0.3,1.2,0.6,1.8,0.9c0.6,0.3,1.4,0.7,2,1c0.6,0.3,1.4,0.7,2,1c0.6,0.3,1.4,0.7,2,1.1c0.6,0.3,1.3,0.8,2,1.1
	c0.7,0.3,1.3,0.8,1.9,1.1c0.6,0.4,1.3,0.8,1.9,1.2c1.9,1.2,3.8,2.4,5.6,3.6c0.6,0.4,1.2,0.9,1.8,1.3c0.6,0.4,1.3,0.9,1.9,1.4
	c0.6,0.4,1.1,0.9,1.7,1.2c0.6,0.4,1.2,0.9,1.8,1.3c0.6,0.4,1.1,0.9,1.7,1.3c0,0,0.1,0,0.1,0.1c1.1,0.9,2.2,1.8,3.4,2.7l0,0
	c0.5,0.4,1,0.8,1.4,1.2c1.2,1,2.4,2.1,3.6,3.2c1,0.9,2.1,1.9,3.1,2.8c2.6,2.5,5.2,5,7.7,7.6c0.5,0.5,0.9,0.9,1.4,1.5
	c0.5,0.5,1,1,1.4,1.5s1,1,1.4,1.5c0.5,0.5,1,1,1.4,1.6c0.4,0.4,0.7,0.9,1.1,1.3c0.6,0.6,1,1.3,1.6,1.9c0.5,0.5,0.9,1.1,1.4,1.6
	c0.9,1.1,1.8,2.1,2.6,3.2C672.4,300.7,672.6,301.1,673,301.4z"/>
<linearGradient id="SVGID_3_" gradientUnits="userSpaceOnUse" x1="534.2099" y1="480.5363" x2="846.3499" y2="713.2826">
	<stop  offset="0" style="stop-color:#46193E"/>
	<stop  offset="0.6878" style="stop-color:#FBD427"/>
</linearGradient>
<path class="st2" d="M817.4,618.5c-0.4,0.6-0.8,1.3-1.2,1.9c-2.7,3.7-5.5,7.3-8.4,10.7C529.7,757.5,475,488.2,475,488.2
	c29-78.7,83.8-93.3,113.9-94.9c-23.7,18.1-39.1,47.8-39.1,81.3c0,20.6,5.8,39.8,15.8,55.7l0,0C608,664.2,767.1,632.2,817.4,618.5z"
	/>
<linearGradient id="SVGID_4_" gradientUnits="userSpaceOnUse" x1="486.38" y1="465.1076" x2="715.8304" y2="707.7726">
	<stop  offset="0.2049" style="stop-color:#46193E"/>
	<stop  offset="0.2936" style="stop-color:#4C1F3D"/>
	<stop  offset="0.4158" style="stop-color:#5D313B"/>
	<stop  offset="0.5574" style="stop-color:#794E37"/>
	<stop  offset="0.7135" style="stop-color:#A17732"/>
	<stop  offset="0.8795" style="stop-color:#D2AA2C"/>
	<stop  offset="1" style="stop-color:#FBD427"/>
</linearGradient>
<linearGradient id="SVGID_5_" gradientUnits="userSpaceOnUse" x1="455.6554" y1="598.9354" x2="809.5183" y2="598.9354">
	<stop  offset="0" style="stop-color:#46193E"/>
	<stop  offset="1" style="stop-color:#FBD427"/>
</linearGradient>
<path class="st3" d="M807.8,631c-1.8,2.1-3.6,4.2-5.4,6.3c-9.4,10.4-19.6,19.8-30.5,28.3c-36.1,27.7-80.4,44-128.2,44
	c-79.2,0-148.6-44.8-187.4-111.9c1.6-46.1,8.7-81.8,19-109.6C475,488.2,529.7,757.5,807.8,631z"/>
<linearGradient id="SVGID_6_" gradientUnits="userSpaceOnUse" x1="597.28" y1="329.0001" x2="835.5848" y2="329.0001">
	<stop  offset="0" style="stop-color:#00798F"/>
	<stop  offset="1" style="stop-color:#46193E"/>
</linearGradient>
<path class="st4" d="M833.8,389.6c-2.7,10.9-7.8,20.8-14.4,29.1c-19.7-45-82-157.4-217.9-172.5c-1.4-0.5-2.8-1-4.2-1.5
	c14.9-3.4,30.4-5.2,46.2-5.2c55.7,0,106.6,22.1,145.4,58.7C813.1,320.9,843.4,351.8,833.8,389.6z"/>
<g>
	<linearGradient id="SVGID_7_" gradientUnits="userSpaceOnUse" x1="603.8981" y1="243.6127" x2="770.3494" y2="402.1021">
		<stop  offset="0" style="stop-color:#46193E"/>
		<stop  offset="1" style="stop-color:#00798F"/>
	</linearGradient>
	<path class="st5" d="M819.4,418.7c-13.3,16.7-33.1,27.1-54.3,27.1c-5.6,0-10.9,0.2-15.8-2.5c-5.7-3-11-6.7-15.8-11.1
		c-2.9-2.6-5.4-5.6-7.9-8.6c-0.6-2.8-1.3-6.6-2.3-11.1c-0.2-0.6-0.3-1.3-0.4-1.9c-0.5-2-1-4-1.5-6.2c-0.1-0.3-0.2-0.7-0.3-1.1
		c-0.9-3.2-1.8-6.8-3-10.5c-0.2-0.4-0.2-0.9-0.4-1.4c-1.4-4.7-3-9.7-4.9-15c-0.2-0.5-0.4-1-0.6-1.5c-0.6-1.5-1.1-3.2-1.8-4.8
		c-0.2-0.5-0.4-1.1-0.6-1.6c-0.4-1.1-0.8-2.1-1.3-3.2c-0.2-0.5-0.4-1.1-0.6-1.6c-0.4-1.1-0.9-2.2-1.4-3.3c-0.2-0.4-0.4-0.9-0.6-1.4
		c-0.2-0.7-0.6-1.4-0.9-2.1c-0.2-0.6-0.5-1.1-0.7-1.7c-0.3-0.7-0.6-1.4-0.9-2.1c-0.5-1-1-2.1-1.4-3.1c-0.2-0.6-0.6-1.1-0.8-1.7
		c-1.6-3.5-3.4-6.9-5.1-10.4c-0.6-1.1-1.2-2.2-1.8-3.3c-3.1-5.8-6.5-11.5-10.2-17.3c-0.4-0.6-0.7-1.1-1.1-1.7
		c-0.7-1-1.4-2.1-2.1-3.2c-0.1-0.2-0.2-0.3-0.2-0.3c-1.1-1.7-2.3-3.3-3.5-5c-1.2-1.7-2.5-3.3-3.8-5c-0.4-0.5-0.8-1.1-1.3-1.6
		c-0.9-1.1-1.8-2.2-2.6-3.2c-0.4-0.5-0.9-1.1-1.4-1.6c-0.6-0.7-1-1.3-1.6-1.9c-0.4-0.4-0.7-0.9-1.1-1.3c-0.5-0.5-1-1.1-1.4-1.6
		c-0.5-0.5-1-1-1.4-1.5s-1-1-1.4-1.5s-0.9-0.9-1.4-1.5c-2.5-2.7-5-5.1-7.7-7.6c-1-0.9-2-1.9-3.1-2.8c-1.2-1-2.4-2.1-3.6-3.2
		c-0.5-0.4-1-0.8-1.4-1.2l0,0c-1.1-0.9-2.2-1.8-3.4-2.7c0,0-0.1,0-0.1-0.1c-0.6-0.4-1.1-0.9-1.7-1.3c-0.6-0.4-1.1-0.9-1.8-1.3
		c-0.6-0.4-1.1-0.9-1.7-1.2c-0.6-0.4-1.3-0.9-1.9-1.4s-1.2-0.9-1.8-1.3c-1.8-1.3-3.7-2.5-5.6-3.6c-0.6-0.4-1.3-0.8-1.9-1.2
		c-0.6-0.4-1.3-0.8-1.9-1.1s-1.3-0.8-2-1.1c-0.6-0.3-1.3-0.8-2-1.1c-0.6-0.3-1.4-0.7-2-1c-0.6-0.3-1.4-0.7-2-1
		c-0.6-0.3-1.2-0.6-1.8-0.9c-0.9-0.4-1.8-0.9-2.6-1.3c-1.3-0.6-2.6-1.2-3.8-1.7c-0.7-0.3-1.4-0.6-2.2-0.9c-0.8-0.3-1.6-0.7-2.4-0.9
		C737.4,261.3,799.6,373.7,819.4,418.7z"/>
</g>
<linearGradient id="SVGID_8_" gradientUnits="userSpaceOnUse" x1="659.3769" y1="505.0286" x2="757.5189" y2="608.8228">
	<stop  offset="0.4" style="stop-color:#E8512F"/>
	<stop  offset="1" style="stop-color:#46193E"/>
</linearGradient>
<path class="st6" d="M816.4,553.1c-43.1,28.2-148.6,84.2-217.7,9.2c13.3,7.7,28.6,12.1,44.7,12.1c16.7,0,32.5-4.7,46-12.9
	c18.2-11,28-31,45.8-41.9c5.7-3.5,12.7-4.2,19.7-4.2c20.3,0,39.9,9.5,53.4,25.7C811.2,544.8,814,548.8,816.4,553.1z"/>
<linearGradient id="SVGID_9_" gradientUnits="userSpaceOnUse" x1="620.6478" y1="478.4099" x2="783.4618" y2="650.6006">
	<stop  offset="0.3902" style="stop-color:#2B1C20"/>
	<stop  offset="1" style="stop-color:#0080AD"/>
</linearGradient>
<path class="st7" d="M826.2,591.6c-0.2,3.3-0.9,6.5-1.8,9.7c-1.8,5.8-3.7,12.1-7,17.2c-50.2,13.8-209.4,45.7-251.6-88.2
	c8.4,13.3,19.8,24.5,33,32.2l0,0c69,74.9,174.6,19,217.7-9.2C823,564.7,827.1,578.6,826.2,591.6z"/>
<path class="st8" d="M847.8,573.7"/>
<path class="st8" d="M324.1,699.1"/>
</svg>
