<?xml version="1.0" encoding="utf-8"?>
<!-- Generator: Adobe Illustrator 22.0.1, SVG Export Plug-In . SVG Version: 6.00 Build 0)  -->
<svg version="1.1" id="Layer_1" xmlns="http://www.w3.org/2000/svg" xmlns:xlink="http://www.w3.org/1999/xlink" x="0px" y="0px"
	 viewBox="0 0 1280 1024" style="enable-background:new 0 0 1280 1024;" xml:space="preserve">
<style type="text/css">
	.st0{fill:url(#SVGID_1_);}
	.st1{opacity:0.47;fill:url(#SVGID_2_);enable-background:new    ;}
	.st2{fill:url(#SVGID_3_);}
	.st3{fill:url(#SVGID_4_);}
	.st4{fill:url(#SVGID_5_);}
	.st5{fill:url(#SVGID_6_);stroke:url(#SVGID_7_);stroke-miterlimit:10;}
	.st6{fill:url(#SVGID_8_);}
	.st7{fill:url(#SVGID_9_);}
	.st8{fill:url(#SVGID_10_);}
	.st9{fill:url(#SVGID_11_);}
	.st10{fill:none;stroke:#000000;stroke-miterlimit:10;}
</style>
<radialGradient id="SVGID_1_" cx="606.2774" cy="-70.0753" r="354.9934" gradientTransform="matrix(1.2246 0 0 9.245459e-02 -85.4473 753.6788)" gradientUnits="userSpaceOnUse">
	<stop  offset="0.1801" style="stop-color:#000000"/>
	<stop  offset="0.3548" style="stop-color:#303030;stop-opacity:0.7869"/>
	<stop  offset="0.7495" style="stop-color:#A7A7A7;stop-opacity:0.3055"/>
	<stop  offset="1" style="stop-color:#F6F6F6;stop-opacity:0"/>
</radialGradient>
<ellipse class="st0" cx="657" cy="747.2" rx="435" ry="32.8"/>
<radialGradient id="SVGID_2_" cx="603.2776" cy="-70.0753" r="282.3808" gradientTransform="matrix(1.1637 0 0 9.245459e-02 -52.2341 753.6788)" gradientUnits="userSpaceOnUse">
	<stop  offset="0.1801" style="stop-color:#000000"/>
	<stop  offset="0.3548" style="stop-color:#303030;stop-opacity:0.7869"/>
	<stop  offset="0.7495" style="stop-color:#A7A7A7;stop-opacity:0.3055"/>
	<stop  offset="1" style="stop-color:#F6F6F6;stop-opacity:0"/>
</radialGradient>
<ellipse class="st1" cx="649.8" cy="747.2" rx="328.7" ry="26.1"/>
<linearGradient id="SVGID_3_" gradientUnits="userSpaceOnUse" x1="405.728" y1="584.0853" x2="748.8" y2="584.0853" gradientTransform="matrix(1 0 0 -1 0 1024)">
	<stop  offset="0" style="stop-color:#475B2A"/>
	<stop  offset="1" style="stop-color:#D4DE31"/>
</linearGradient>
<path class="st2" d="M748.8,412.6c-4.2-4.9-8.2-10.1-12.4-15.2c-6.7-8.1-14.5-15.2-23.1-21.3c-19-13.3-42-21-66.9-21
	c-25.4,0-48.9,8.1-68.1,21.9c-51,2.6-158.3,32.9-166.1,239.3c-1.3-2.1-2.5-4.2-3.7-6.3c-8.8-94.6-14.2-392.9,274.8-340.3
	c0.2,0.2,0.4,0.5,0.6,0.7c1.6,2,3.2,3.9,4.7,5.9c1.5,1.9,2.9,3.9,4.4,5.8c0.1,0.1,0.2,0.3,0.3,0.4c0.9,1.2,1.8,2.4,2.6,3.7
	c0.5,0.7,0.9,1.3,1.4,2c4.6,6.7,8.8,13.5,12.7,20.2c0.8,1.3,1.5,2.6,2.2,3.9c2.3,4.1,4.4,8.2,6.4,12.2c0.3,0.7,0.7,1.3,1,2
	c0.6,1.2,1.2,2.4,1.8,3.6c0.4,0.8,0.7,1.6,1.1,2.4c0.3,0.7,0.6,1.3,0.9,2c0.4,0.8,0.7,1.6,1.1,2.4c0.2,0.5,0.5,1.1,0.7,1.6
	c0.6,1.3,1.2,2.6,1.7,3.9c0.3,0.7,0.5,1.3,0.8,1.9c0.5,1.3,1.1,2.6,1.6,3.8c0.3,0.6,0.5,1.3,0.8,1.9c0.8,1.9,1.5,3.8,2.2,5.6
	c0.2,0.6,0.5,1.2,0.7,1.8c2.3,6.1,4.3,12,6.1,17.5c0.2,0.5,0.4,1.1,0.5,1.6c1.4,4.4,2.6,8.5,3.7,12.3c0.1,0.4,0.2,0.8,0.4,1.3
	c0.7,2.5,1.3,4.9,1.9,7.2c0.2,0.8,0.4,1.5,0.5,2.2C747.2,404.9,748,409.3,748.8,412.6z"/>
<linearGradient id="SVGID_4_" gradientUnits="userSpaceOnUse" x1="416.166" y1="708.8817" x2="559.3567" y2="572.5401" gradientTransform="matrix(1 0 0 -1 0 1024)">
	<stop  offset="0" style="stop-color:#D4DE31"/>
	<stop  offset="1" style="stop-color:#000000"/>
</linearGradient>
<path class="st3" d="M683.2,269.7c-289-52.6-283.5,245.7-274.8,340.3c-23.5-40.5-37-87.6-37-137.9c0-132,93.1-242.4,217.2-268.9
	c1.8,0.6,3.5,1.2,5.2,1.8c1,0.4,2,0.8,3,1.1c0.9,0.3,1.8,0.7,2.7,1c1.6,0.7,3.2,1.3,4.8,2c1.1,0.5,2.2,1,3.3,1.5
	c0.8,0.3,1.5,0.7,2.3,1c0.8,0.4,1.7,0.8,2.5,1.2s1.7,0.8,2.5,1.2s1.7,0.8,2.5,1.3c0.8,0.4,1.6,0.9,2.5,1.3s1.6,0.9,2.4,1.3
	c0.8,0.5,1.6,0.9,2.4,1.4c2.4,1.4,4.7,2.8,7,4.2c0.8,0.5,1.5,1,2.3,1.5s1.6,1,2.4,1.6c0.7,0.5,1.4,1,2.1,1.4c0.7,0.5,1.5,1,2.2,1.5
	s1.4,1,2.1,1.5c0,0,0.1,0,0.1,0.1c1.4,1,2.8,2.1,4.2,3.2l0,0c0.6,0.5,1.2,0.9,1.8,1.4c1.5,1.2,3,2.4,4.5,3.7
	c1.3,1.1,2.6,2.2,3.9,3.3c3.3,2.9,6.5,5.9,9.6,8.9c0.6,0.6,1.1,1.1,1.7,1.7c0.6,0.6,1.2,1.2,1.8,1.8s1.2,1.2,1.8,1.8
	c0.6,0.6,1.2,1.2,1.8,1.9c0.5,0.5,0.9,1,1.4,1.5c0.7,0.7,1.3,1.5,2,2.2c0.6,0.6,1.1,1.3,1.7,1.9c1.1,1.3,2.2,2.5,3.3,3.8
	C682.5,268.9,682.8,269.3,683.2,269.7z"/>
<linearGradient id="SVGID_5_" gradientUnits="userSpaceOnUse" x1="511.3517" y1="546.0543" x2="894.2041" y2="260.5815" gradientTransform="matrix(1 0 0 -1 0 1024)">
	<stop  offset="0" style="stop-color:#46193E"/>
	<stop  offset="0.6878" style="stop-color:#FBD427"/>
</linearGradient>
<path class="st4" d="M863.8,640.5c-0.5,0.7-1,1.5-1.5,2.2c-3.4,4.3-6.9,8.5-10.5,12.5c-347.7,147.9-416-167.1-416-167.1
	c36.3-92,104.8-109.1,142.4-111c-29.6,21.2-48.9,55.9-48.9,95.1c0,24.1,7.3,46.5,19.8,65.1l0,0C602,694,800.9,656.6,863.8,640.5z"/>
<linearGradient id="SVGID_6_" gradientUnits="userSpaceOnUse" x1="456.0443" y1="570.1136" x2="736.4379" y2="273.5714" gradientTransform="matrix(1 0 0 -1 0 1024)">
	<stop  offset="0.2049" style="stop-color:#46193E"/>
	<stop  offset="0.2936" style="stop-color:#4C1F3D"/>
	<stop  offset="0.4158" style="stop-color:#5D313B"/>
	<stop  offset="0.5574" style="stop-color:#794E37"/>
	<stop  offset="0.7135" style="stop-color:#A17732"/>
	<stop  offset="0.8795" style="stop-color:#D2AA2C"/>
	<stop  offset="1" style="stop-color:#FBD427"/>
</linearGradient>
<linearGradient id="SVGID_7_" gradientUnits="userSpaceOnUse" x1="411.6948" y1="406.3499" x2="853.5291" y2="406.3499" gradientTransform="matrix(1 0 0 -1 0 1024)">
	<stop  offset="0" style="stop-color:#46193E"/>
	<stop  offset="1" style="stop-color:#FBD427"/>
</linearGradient>
<path class="st5" d="M851.7,655.2c-2.2,2.5-4.5,4.9-6.8,7.4c-11.7,12.2-24.5,23.2-38.1,33.1c-45.1,32.4-100.5,51.5-160.3,51.5
	c-99,0-185.8-52.4-234.3-130.9c2-53.9,10.9-95.7,23.7-128.2C435.8,488.1,504.1,803.1,851.7,655.2z"/>
<linearGradient id="SVGID_8_" gradientUnits="userSpaceOnUse" x1="588.6" y1="722.05" x2="886.481" y2="722.05" gradientTransform="matrix(1 0 0 -1 0 1024)">
	<stop  offset="0" style="stop-color:#00798F"/>
	<stop  offset="1" style="stop-color:#46193E"/>
</linearGradient>
<path class="st6" d="M884.2,372.8c-3.4,12.8-9.7,24.3-18,34C841.6,354.2,763.7,222.7,593.8,205c-1.7-0.6-3.5-1.2-5.2-1.8
	c18.6-4,38-6.1,57.8-6.1c69.6,0,133.2,25.9,181.7,68.6C858.4,292.5,896.2,328.6,884.2,372.8z"/>
<g>
	
		<linearGradient id="SVGID_9_" gradientUnits="userSpaceOnUse" x1="602.0145" y1="827.5423" x2="804.1995" y2="635.0284" gradientTransform="matrix(1 0 0 -1 0 1024)">
		<stop  offset="0" style="stop-color:#46193E"/>
		<stop  offset="1" style="stop-color:#00798F"/>
	</linearGradient>
	<path class="st7" d="M866.2,406.9c-16.6,19.5-41.4,31.7-67.9,31.7c-7,0-13.6,0.2-19.8-2.9c-7.1-3.5-13.8-7.8-19.8-13
		c-3.6-3-6.8-6.5-9.9-10.1c-0.7-3.3-1.6-7.7-2.9-13c-0.2-0.7-0.4-1.5-0.5-2.2c-0.6-2.3-1.2-4.7-1.9-7.2c-0.1-0.4-0.2-0.8-0.4-1.3
		c-1.1-3.8-2.3-8-3.7-12.3c-0.2-0.5-0.3-1.1-0.5-1.6c-1.8-5.5-3.8-11.4-6.1-17.5c-0.2-0.6-0.5-1.2-0.7-1.8c-0.7-1.8-1.4-3.7-2.2-5.6
		c-0.3-0.6-0.5-1.3-0.8-1.9c-0.5-1.3-1-2.5-1.6-3.8c-0.3-0.6-0.5-1.3-0.8-1.9c-0.5-1.3-1.1-2.6-1.7-3.9c-0.2-0.5-0.5-1.1-0.7-1.6
		c-0.3-0.8-0.7-1.6-1.1-2.4c-0.3-0.7-0.6-1.3-0.9-2c-0.4-0.8-0.7-1.6-1.1-2.4c-0.6-1.2-1.2-2.4-1.8-3.6c-0.3-0.7-0.7-1.3-1-2
		c-2-4.1-4.2-8.1-6.4-12.2c-0.7-1.3-1.5-2.6-2.2-3.9c-3.9-6.8-8.1-13.5-12.7-20.2c-0.5-0.7-0.9-1.3-1.4-2c-0.9-1.2-1.7-2.5-2.6-3.7
		c-0.1-0.2-0.2-0.3-0.3-0.4c-1.4-2-2.9-3.9-4.4-5.8c-1.5-2-3.1-3.9-4.7-5.9c-0.5-0.6-1-1.3-1.6-1.9c-1.1-1.3-2.2-2.6-3.3-3.8
		c-0.5-0.6-1.1-1.3-1.7-1.9c-0.7-0.8-1.3-1.5-2-2.2c-0.5-0.5-0.9-1-1.4-1.5c-0.6-0.6-1.2-1.3-1.8-1.9s-1.2-1.2-1.8-1.8
		c-0.6-0.6-1.2-1.2-1.8-1.8s-1.1-1.1-1.7-1.7c-3.1-3.1-6.3-6-9.6-8.9c-1.3-1.1-2.5-2.2-3.9-3.3c-1.5-1.2-3-2.5-4.5-3.7
		c-0.6-0.5-1.2-0.9-1.8-1.4l0,0c-1.4-1.1-2.8-2.1-4.2-3.2c0,0-0.1,0-0.1-0.1c-0.7-0.5-1.4-1-2.1-1.5c-0.7-0.5-1.4-1-2.2-1.5
		c-0.7-0.5-1.4-1-2.1-1.4c-0.8-0.5-1.6-1.1-2.4-1.6c-0.8-0.5-1.5-1-2.3-1.5c-2.3-1.5-4.6-2.9-7-4.2c-0.8-0.5-1.6-0.9-2.4-1.4
		s-1.6-0.9-2.4-1.3c-0.8-0.4-1.6-0.9-2.5-1.3c-0.8-0.4-1.6-0.9-2.5-1.3c-0.8-0.4-1.7-0.8-2.5-1.2s-1.7-0.8-2.5-1.2s-1.5-0.7-2.3-1
		c-1.1-0.5-2.2-1-3.3-1.5c-1.6-0.7-3.2-1.4-4.8-2c-0.9-0.4-1.8-0.7-2.7-1c-1-0.4-2-0.8-3-1.1C763.7,222.8,841.5,354.2,866.2,406.9z"
		/>
</g>
<linearGradient id="SVGID_10_" gradientUnits="userSpaceOnUse" x1="665.7469" y1="520.3439" x2="788.7953" y2="390.209" gradientTransform="matrix(1 0 0 -1 0 1024)">
	<stop  offset="0.4" style="stop-color:#E8512F"/>
	<stop  offset="1" style="stop-color:#46193E"/>
</linearGradient>
<path class="st8" d="M862.5,564.1c-53.9,33-185.8,98.5-272.1,10.8c16.6,9,35.7,14.2,55.9,14.2c20.9,0,40.6-5.5,57.5-15.1
	c22.8-12.9,35-36.2,57.3-49c7.1-4.1,15.9-4.9,24.6-4.9c25.4,0,49.9,11.1,66.7,30.1C856,554.3,859.5,559,862.5,564.1z"/>
<linearGradient id="SVGID_11_" gradientUnits="userSpaceOnUse" x1="619.3782" y1="552.962" x2="819.3514" y2="341.4719" gradientTransform="matrix(1 0 0 -1 0 1024)">
	<stop  offset="0.3902" style="stop-color:#2B1C20"/>
	<stop  offset="1" style="stop-color:#0080AD"/>
</linearGradient>
<path class="st9" d="M874.8,609.1c-0.3,3.9-1.1,7.6-2.3,11.3c-2.3,6.8-4.6,14.1-8.7,20.1C801,656.6,602,694,549.3,537.3
	c10.5,15.6,24.7,28.6,41.3,37.7l0,0c86.3,87.6,218.3,22.2,272.1-10.8C870.7,577.6,875.9,593.9,874.8,609.1z"/>
<path class="st10" d="M901.8,588.1"/>
</svg>
